<?xml version="1.0" standalone="no"?>
<!DOCTYPE svg PUBLIC "-//W3C//DTD SVG 20010904//EN"
 "http://www.w3.org/TR/2001/REC-SVG-20010904/DTD/svg10.dtd">
<svg version="1.0" xmlns="http://www.w3.org/2000/svg"
 width="100.000000pt" height="100.000000pt" viewBox="0 0 100.000000 100.000000"
 preserveAspectRatio="xMidYMid meet">
<metadata>
Created by potrace 1.14, written by Peter Selinger 2001-2017
</metadata>
<g transform="translate(0.000000,100.000000) scale(0.100000,-0.100000)"
fill="#000000" stroke="none">
<path d="M0 500 l0 -500 500 0 500 0 0 500 0 500 -500 0 -500 0 0 -500z m567
397 c-7 -5 2 -6 21 -3 22 4 31 2 26 -5 -4 -8 1 -9 16 -4 17 5 21 4 15 -6 -6
-9 -3 -11 9 -6 11 5 15 3 10 -5 -5 -8 -2 -9 10 -5 11 5 15 3 10 -5 -5 -8 -2
-9 10 -5 11 5 15 3 10 -5 -5 -7 -2 -9 9 -5 10 4 23 -3 37 -21 12 -15 18 -20
14 -12 -4 8 7 2 24 -14 17 -16 31 -32 30 -35 -2 -20 4 -31 15 -29 7 2 11 -5 9
-16 -2 -12 1 -16 9 -10 8 4 10 3 5 -4 -4 -7 -2 -12 4 -12 6 0 8 -4 5 -10 -3
-5 -2 -10 4 -10 6 0 7 -7 4 -17 -4 -10 -2 -14 4 -10 15 9 24 -19 17 -51 -3
-16 -2 -22 3 -15 4 6 8 -27 8 -77 0 -49 -4 -86 -9 -83 -5 4 -6 -6 -2 -21 5
-20 4 -26 -5 -20 -9 5 -10 2 -6 -10 4 -10 -2 -35 -14 -58 -27 -54 -117 -148
-134 -142 -7 3 -16 0 -21 -7 -4 -8 -3 -10 4 -5 7 4 12 5 12 2 0 -3 -10 -10
-21 -17 -15 -7 -19 -8 -15 0 5 7 1 9 -8 5 -9 -3 -13 -10 -10 -15 3 -5 -3 -6
-12 -2 -12 5 -15 3 -9 -6 6 -10 2 -11 -15 -6 -16 5 -20 4 -15 -4 5 -8 -2 -10
-22 -6 -16 4 -23 3 -16 -2 6 -4 -32 -8 -87 -8 -55 0 -93 4 -87 8 7 5 0 6 -16
2 -20 -4 -27 -2 -22 6 5 8 1 9 -15 4 -17 -5 -21 -4 -15 6 6 9 3 11 -9 6 -9 -4
-15 -3 -12 2 3 5 -1 12 -10 15 -9 4 -13 2 -8 -5 4 -8 0 -7 -15 0 -11 7 -21 14
-21 17 0 3 5 2 12 -2 7 -5 8 -3 4 5 -5 7 -14 10 -21 8 -15 -7 -104 84 -98 100
2 6 -1 15 -8 19 -8 4 -9 3 -5 -4 4 -7 5 -12 2 -12 -13 0 -45 80 -39 96 4 12 3
15 -6 10 -9 -6 -10 0 -5 20 4 15 3 25 -2 21 -5 -3 -9 34 -9 83 0 50 4 83 8 77
5 -7 6 0 2 16 -4 20 -2 27 6 22 8 -5 9 -1 4 15 -5 16 -4 20 5 15 9 -5 10 -2 6
12 -3 11 1 27 10 39 8 10 12 13 8 5 -5 -9 -3 -12 5 -7 6 4 10 15 9 24 -2 10 3
16 11 14 8 -2 11 3 8 11 -3 9 10 29 30 48 20 19 33 27 29 19 -4 -8 2 -3 14 12
14 18 27 25 37 21 11 -4 14 -2 9 5 -5 8 -1 10 10 5 12 -4 15 -3 10 5 -5 8 -1
10 10 5 12 -4 15 -3 10 5 -5 8 -1 10 10 5 12 -5 15 -3 9 6 -6 10 -2 11 15 6
15 -5 20 -4 16 4 -5 7 4 9 26 5 19 -3 28 -2 21 3 -7 5 22 8 67 8 45 0 74 -3
67 -8z m-44 -814 c-13 -2 -33 -2 -45 0 -13 2 -3 4 22 4 25 0 35 -2 23 -4z"/>
<path d="M380 863 c-114 -40 -215 -142 -246 -251 -24 -81 -16 -202 18 -274
137 -295 560 -295 696 0 31 68 41 177 22 259 -15 69 -78 163 -141 209 -94 69
-244 93 -349 57z m131 -35 l2 -23 4 23 c5 24 11 26 31 14 9 -6 10 -15 3 -33
-5 -13 -10 -17 -11 -9 0 9 -3 11 -8 5 -4 -5 -26 -11 -49 -12 -39 -2 -43 0 -43
23 0 30 20 32 21 2 1 -21 2 -20 11 5 12 33 37 36 39 5z m-83 -15 c-2 -16 -7
-28 -13 -29 -5 0 -31 -10 -57 -23 -26 -12 -52 -20 -58 -16 -18 11 -11 32 17
50 25 17 27 17 41 -1 13 -18 14 -18 7 4 -4 13 -2 22 4 22 6 0 11 -7 11 -15 0
-8 5 -15 11 -15 6 0 8 7 5 17 -4 9 -1 20 6 25 23 14 29 9 26 -19z m167 17 c3
-5 12 -7 19 -4 7 3 19 -3 27 -12 12 -16 12 -17 -5 -11 -15 6 -17 5 -8 -6 13
-15 6 -27 -15 -27 -9 0 -13 8 -11 20 2 10 -1 18 -7 17 -5 -1 -9 -7 -9 -14 1
-6 -5 -9 -12 -6 -15 6 -17 13 -8 37 7 18 20 21 29 6z m-160 -75 c-62 -17 -69
-17 -30 0 17 8 41 14 55 14 15 0 5 -6 -25 -14z m128 8 c-7 -2 -21 -2 -30 0
-10 3 -4 5 12 5 17 0 24 -2 18 -5z m-296 -10 c-7 -11 19 -33 29 -25 4 4 4 1 0
-6 -5 -7 -15 -11 -23 -8 -8 3 -12 2 -8 -3 6 -11 -4 -41 -14 -41 -3 0 -15 7
-25 15 -16 12 -17 17 -6 30 7 8 17 12 24 8 6 -3 8 -3 4 2 -4 4 -3 14 3 22 12
14 23 18 16 6z m343 -3 c8 -5 11 -10 5 -10 -5 0 -17 5 -25 10 -8 5 -10 10 -5
10 6 0 17 -5 25 -10z m118 -31 c-17 -10 -28 -2 -21 17 4 11 8 12 20 3 11 -10
11 -14 1 -20z m-385 -5 c-18 -13 -44 -39 -58 -57 -15 -18 -22 -23 -16 -11 11
22 86 94 99 94 4 0 -7 -12 -25 -26z m337 -11 c23 -20 46 -46 51 -57 6 -12 -1
-7 -16 11 -14 18 -40 44 -58 57 -18 14 -29 26 -25 26 5 0 26 -16 48 -37z
m-251 -34 c36 -13 51 -35 51 -78 0 -30 -2 -31 -44 -31 -41 0 -45 2 -48 28 -4
24 -5 25 -13 8 -6 -15 -2 -24 19 -40 79 -62 87 -71 93 -113 3 -23 3 -53 -1
-67 -9 -36 -59 -59 -114 -53 -58 6 -82 31 -85 88 l-2 44 37 3 38 3 -40 38
c-33 32 -40 44 -40 77 0 82 64 122 149 93z m236 -5 c37 -17 55 -55 55 -115 l0
-39 -50 0 -50 0 0 50 c0 28 -4 50 -10 50 -6 0 -10 -43 -10 -110 0 -67 4 -110
10 -110 6 0 10 18 10 40 l0 40 50 0 50 0 0 -34 c0 -42 -9 -68 -21 -60 -5 3 -6
-2 -3 -10 7 -19 -43 -46 -86 -46 -86 0 -114 52 -108 206 2 75 7 96 23 114 37
42 86 50 140 24z m153 -2 c2 -7 -3 -12 -12 -12 -9 0 -16 -7 -16 -15 0 -13 4
-14 22 -4 18 10 20 9 15 -5 -4 -9 -2 -16 4 -16 6 0 7 -4 4 -10 -3 -5 0 -10 7
-10 9 0 9 -3 -2 -10 -8 -5 -10 -10 -4 -10 7 0 14 -13 16 -30 4 -28 2 -30 -26
-29 -26 0 -28 2 -11 9 17 7 17 9 3 9 -21 1 -24 27 -5 34 7 3 5 6 -5 6 -19 1
-20 21 -3 33 6 5 4 8 -5 8 -8 0 -21 9 -28 21 -11 18 -11 23 5 35 20 15 35 14
41 -4z m-590 -1 c18 -11 -6 -64 -26 -56 -7 3 -18 5 -23 5 -5 0 -9 7 -9 15 0 8
5 15 10 15 6 0 10 -4 10 -10 0 -5 8 -10 17 -10 14 0 13 3 -5 16 -33 23 -9 48
26 25z m-18 -79 c3 -2 -1 -7 -9 -10 -11 -4 -11 -6 0 -13 11 -7 10 -9 -3 -9
-10 0 -18 -5 -18 -11 0 -5 5 -7 10 -4 6 3 10 0 10 -8 0 -10 -7 -14 -22 -11
l-23 5 23 -10 c29 -13 28 -37 -1 -43 -22 -4 -24 -1 -26 39 -1 28 3 42 9 38 5
-3 10 -1 10 4 0 6 -4 11 -9 11 -5 0 -7 9 -4 20 4 16 11 19 27 14 11 -4 23 -9
26 -12z m31 -18 c-5 -16 -10 -21 -10 -12 -1 18 10 51 15 45 2 -1 -1 -16 -5
-33z m526 -16 c-3 -8 -6 -5 -6 6 -1 11 2 17 5 13 3 -3 4 -12 1 -19z m-540 -60
c-3 -7 -5 -2 -5 12 0 14 2 19 5 13 2 -7 2 -19 0 -25z m550 -5 c-3 -10 -5 -4
-5 12 0 17 2 24 5 18 2 -7 2 -21 0 -30z m81 5 c-3 -7 -15 -13 -28 -13 -13 0
-25 6 -27 13 -3 8 6 12 27 12 21 0 30 -4 28 -12z m-571 -152 c25 -32 56 -57
98 -79 17 -9 25 -16 19 -17 -21 0 -102 61 -127 98 -29 41 -47 85 -47 110 1 9
9 -6 18 -34 10 -28 27 -63 39 -78z m478 85 c-10 -47 -62 -117 -112 -150 -26
-17 -51 -31 -57 -31 -6 1 5 10 25 20 70 37 138 127 139 184 0 11 3 17 6 13 3
-3 3 -19 -1 -36z m83 14 c1 -18 -3 -25 -16 -26 -10 0 -12 -3 -4 -6 15 -6 16
-33 1 -33 -5 0 -7 -4 -4 -10 10 -17 -22 -11 -36 7 -10 12 -11 17 -2 20 7 2 10
10 7 18 -3 7 -1 16 5 19 6 4 8 13 4 21 -3 11 2 15 19 15 18 0 24 -6 26 -25z
m-634 -70 c-3 -8 -12 -11 -19 -9 -8 3 -11 12 -9 19 3 8 12 11 19 9 8 -3 11
-12 9 -19z m586 -25 c13 -24 -15 -74 -36 -66 -9 3 -11 -1 -7 -12 6 -15 3 -14
-16 2 -27 24 -13 43 20 26 l24 -11 -23 20 c-12 11 -18 22 -13 25 5 4 16 -1 25
-9 8 -8 17 -11 21 -6 3 5 -4 12 -15 16 -20 6 -25 16 -13 28 11 12 22 8 33 -13z
m-526 -61 c-3 -5 -10 -6 -16 -3 -7 4 -8 2 -4 -4 4 -6 13 -9 21 -6 17 7 88 -40
77 -51 -4 -4 3 -4 15 -1 12 4 24 2 28 -4 3 -5 1 -10 -5 -10 -6 0 -8 -5 -5 -11
5 -6 12 -4 20 8 13 17 14 17 24 -7 7 -18 10 -20 10 -7 1 21 20 22 28 1 5 -13
7 -13 14 -2 6 9 9 4 9 -16 0 -26 -2 -28 -27 -22 -16 4 -37 8 -48 10 -11 2 -21
5 -22 6 -2 1 -9 3 -15 4 -7 1 -12 9 -12 19 1 9 -5 17 -13 17 -8 0 -11 -4 -8
-10 3 -5 1 -10 -6 -10 -6 0 -9 8 -6 20 3 11 1 20 -5 20 -5 0 -6 5 -2 12 4 7 3
8 -4 4 -6 -4 -9 -13 -5 -21 9 -25 -11 -17 -55 22 -42 37 -43 37 -20 49 24 13
42 9 32 -7z m173 -45 c-3 -3 -12 -4 -19 -1 -8 3 -5 6 6 6 11 1 17 -2 13 -5z
m130 0 c-3 -3 -12 -4 -19 -1 -8 3 -5 6 6 6 11 1 17 -2 13 -5z m-54 -11 c-13
-2 -33 -2 -45 0 -13 2 -3 4 22 4 25 0 35 -2 23 -4z m154 -18 c0 -10 -6 -14
-14 -10 -8 3 -17 5 -19 5 -3 0 -2 5 1 10 10 16 32 12 32 -5z m-110 -40 c3 -17
-1 -25 -12 -25 -8 0 -15 5 -15 11 0 5 6 7 13 3 7 -5 6 0 -3 11 -14 18 -15 18
-18 -3 -5 -30 -32 -28 -32 2 0 19 6 25 28 28 34 4 35 3 39 -27z"/>
<path d="M320 779 c0 -5 -5 -7 -12 -3 -7 4 -8 3 -4 -4 4 -6 13 -9 21 -6 8 4
12 10 9 15 -7 12 -14 11 -14 -2z"/>
<path d="M400 650 c0 -5 7 -7 15 -4 8 4 15 8 15 10 0 2 -7 4 -15 4 -8 0 -15
-4 -15 -10z"/>
<path d="M378 420 c2 -16 8 -30 13 -30 10 0 12 21 3 44 -10 27 -21 18 -16 -14z"/>
<path d="M336 394 c-11 -7 -23 -11 -27 -8 -11 7 -11 -7 0 -25 6 -10 13 -11 29
-2 25 13 45 14 38 2 -4 -5 3 -7 14 -4 11 3 27 0 35 -7 17 -14 36 -5 29 15 -4
8 -11 12 -16 9 -6 -4 -14 -1 -18 7 -7 10 -11 10 -23 0 -12 -10 -18 -8 -29 8
-12 17 -16 17 -32 5z"/>
<path d="M584 649 c-3 -5 2 -9 11 -9 9 0 13 -4 10 -10 -8 -13 -2 -13 30 2 14
6 25 15 25 19 0 10 -69 9 -76 -2z"/>
<path d="M670 640 c0 -5 5 -10 11 -10 5 0 7 5 4 10 -3 6 -8 10 -11 10 -2 0 -4
-4 -4 -10z"/>
<path d="M635 540 c-3 -6 1 -7 9 -4 18 7 21 14 7 14 -6 0 -13 -4 -16 -10z"/>
<path d="M575 530 c-3 -5 -1 -10 4 -10 6 0 11 5 11 10 0 6 -2 10 -4 10 -3 0
-8 -4 -11 -10z"/>
<path d="M570 500 c-9 -6 -10 -10 -3 -10 6 0 15 5 18 10 8 12 4 12 -15 0z"/>
<path d="M520 471 c0 -6 4 -13 10 -16 6 -3 7 1 4 9 -7 18 -14 21 -14 7z"/>
<path d="M560 470 c-8 -5 -10 -10 -5 -10 6 0 17 5 25 10 8 5 11 10 5 10 -5 0
-17 -5 -25 -10z"/>
<path d="M566 447 c-16 -12 -17 -17 -6 -37 11 -21 10 -22 -6 -16 -10 4 -15 4
-11 0 4 -4 2 -13 -4 -20 -7 -9 -6 -15 3 -20 21 -14 36 -13 42 2 3 8 2 13 -2
13 -19 -3 -26 2 -13 10 10 7 11 13 1 31 -10 18 -9 24 7 36 10 7 15 14 12 14
-3 0 -13 -6 -23 -13z"/>
<path d="M670 451 c0 -5 -9 -13 -21 -16 -11 -4 -18 -9 -16 -12 3 -2 19 3 36
12 41 21 40 10 -1 -15 -34 -21 -32 -28 3 -10 10 6 19 7 19 2 0 -5 -10 -14 -22
-20 -13 -6 -18 -11 -12 -11 19 -2 43 23 50 52 5 23 3 27 -15 27 -12 0 -21 -4
-21 -9z"/>
<path d="M634 345 c-10 -8 -14 -14 -9 -15 15 0 40 18 34 24 -3 3 -14 -1 -25
-9z"/>
<path d="M818 483 c7 -3 16 -2 19 1 4 3 -2 6 -13 5 -11 0 -14 -3 -6 -6z"/>
<path d="M281 253 c-1 -17 16 -25 25 -12 4 7 3 9 -4 5 -5 -3 -13 0 -15 6 -4 9
-6 10 -6 1z"/>
<path d="M511 164 c0 -11 3 -14 6 -6 3 7 2 16 -1 19 -3 4 -6 -2 -5 -13z"/>
<path d="M199 773 l-24 -28 28 24 c25 23 32 31 24 31 -2 0 -14 -12 -28 -27z"/>
<path d="M785 780 c10 -11 20 -20 23 -20 3 0 -3 9 -13 20 -10 11 -20 20 -23
20 -3 0 3 -9 13 -20z"/>
<path d="M185 240 c10 -11 20 -20 23 -20 3 0 -3 9 -13 20 -10 11 -20 20 -23
20 -3 0 3 -9 13 -20z"/>
<path d="M804 238 l-19 -23 23 19 c21 18 27 26 19 26 -2 0 -12 -10 -23 -22z"/>
<path d="M235 190 c10 -11 20 -20 23 -20 3 0 -3 9 -13 20 -10 11 -20 20 -23
20 -3 0 3 -9 13 -20z"/>
<path d="M754 188 l-19 -23 23 19 c21 18 27 26 19 26 -2 0 -12 -10 -23 -22z"/>
</g>
</svg>
